<svg xmlns="http://www.w3.org/2000/svg" version="1.1" xmlns:xlink="http://www.w3.org/1999/xlink" xmlns:svgjs="http://svgjs.com/svgjs" width="1450" height="900" preserveAspectRatio="none" viewBox="0 0 1450 900">
    <g mask="url(&quot;#SvgjsMask1172&quot;)" fill="none">
        <rect width="1450" height="900" x="0" y="0" fill="rgba(131, 178, 227, 1)"></rect>
        <path d="M0,669.033C124.854,690.043,247.254,618.805,351.578,547.067C453.723,476.827,532.041,379.249,584.65,267.001C637.632,153.956,689.126,25.438,651.91,-93.731C615.651,-209.836,484.258,-259.745,394.509,-341.844C316.738,-412.986,250.692,-490.73,159.722,-543.965C44.721,-611.263,-70.73,-707.19,-203.052,-691.53C-338.896,-675.453,-448.073,-569.092,-533.136,-461.965C-615.973,-357.642,-663.858,-229.799,-675.083,-97.062C-685.904,30.892,-670.886,168.086,-595.191,271.815C-524.037,369.32,-383.357,373.282,-282.956,440.288C-179.99,509.006,-122.075,648.49,0,669.033" fill="#5d9ada"></path>
        <path d="M1450 1398.4479999999999C1556.621 1409.58 1672.561 1444.4389999999999 1764.979 1390.116 1857.917 1335.4859999999999 1891.429 1219.629 1927.218 1117.938 1960.425 1023.5840000000001 1967.2559999999999 926.132 1963.45 826.177 1959.242 715.6800000000001 1970.216 595.173 1903.941 506.658 1836.475 416.551 1713.569 398.965 1610.206 354.389 1491.255 303.09000000000003 1380.324 208.188 1251.942 225.47500000000002 1119.325 243.332 997.697 333.1 926.568 446.444 858.839 554.371 876.251 690.696 880.071 818.057 883.322 926.454 892.855 1035.757 947.06 1129.685 998.446 1218.729 1083.96 1280.027 1174.632 1328.481 1259.887 1374.04 1353.859 1388.41 1450 1398.4479999999999" fill="#a9caec"></path>
    </g>
    <defs>
        <mask id="SvgjsMask1172">
            <rect width="1450" height="900" fill="#ffffff"></rect>
        </mask>
    </defs>
</svg>